/vscmnt/brussel_pixiu_data/_data_brussel/112/vsc11236/PredSimResults/SUBJ04mtu3D/weighted-expIG/worker_02.mot
version=1
nRows=4
nColumns=50
inDegrees=yes
endheader
                time	         pelvis_tilt	         pelvis_list	     pelvis_rotation	           pelvis_tx	           pelvis_ty	           pelvis_tz	       hip_flexion_r	     hip_adduction_r	      hip_rotation_r	        knee_angle_r	       ankle_angle_r	         mtp_angle_r	       hip_flexion_l	     hip_adduction_l	      hip_rotation_l	        knee_angle_l	       ankle_angle_l	         mtp_angle_l	    lumbar_extension	      lumbar_bending	     lumbar_rotation	 ercspn_r/activation	 intobl_r/activation	 extobl_r/activation	    abd_r/activation	    add_r/activation	hamstrings_r/activation	bifemsh_r/activation	glut_max_r/activation	iliopsoas_r/activation	rect_fem_r/activation	  vasti_r/activation	gastroc_r/activation	 soleus_r/activation	tib_ant_r/activation	 ercspn_l/activation	 intobl_l/activation	 extobl_l/activation	    abd_l/activation	    add_l/activation	hamstrings_l/activation	bifemsh_l/activation	glut_max_l/activation	iliopsoas_l/activation	rect_fem_l/activation	  vasti_l/activation	gastroc_l/activation	 soleus_l/activation	tib_ant_l/activation	
          0.69512463	         -5.38132505	          4.72535205	        -12.21014506	          0.60475843	          0.88377794	          0.02085844	         -8.39795422	         -4.18826951	         15.39714419	         -8.85831122	         12.47478265	         23.25774469	         24.09527916	          0.49778935	         -4.67249538	          2.16210136	          5.08933746	          0.22450932	         -2.93343370	         -1.80250075	          1.01776492	          0.04348614	          0.01000000	          0.01000001	          0.08345911	          0.01000029	          0.01713296	          0.12928779	          0.06503774	          0.30625780	          0.01000005	          0.01000001	          0.29455879	          0.27342491	          0.01268879	          0.07961755	          0.14998293	          0.01868646	          0.01949042	          0.12147420	          0.02064672	          0.01000011	          0.01000023	          0.05297367	          0.01231728	          0.03061875	          0.01000001	          0.01000001	          0.26019635	
          0.70902713	         -5.49540756	          4.60733554	        -12.04522847	          0.61958984	          0.88194421	          0.01969662	         -8.62258565	         -4.03804526	         14.54463688	        -10.17308144	         12.25311622	         24.90852715	         23.67810538	          0.78291822	         -3.38733874	          1.50867867	          4.78374704	          0.20974580	         -2.64567930	         -2.08829899	          1.26484606	          0.06264988	          0.01000000	          0.01000001	          0.06775884	          0.02593190	          0.01466685	          0.10496627	          0.05468198	          0.27500560	          0.01000011	          0.01000001	          0.27104909	          0.26712038	          0.01030179	          0.06798198	          0.16414740	          0.01517118	          0.01582390	          0.10938431	          0.02571060	          0.03615397	          0.01382289	          0.04300830	          0.01000022	          0.02485878	          0.01517186	          0.01337413	          0.28309922	
          0.72292962	         -5.59366016	          4.48842634	        -11.80775963	          0.63472403	          0.88035590	          0.01843597	         -8.76646637	         -3.86520046	         13.64597412	        -11.70143430	         11.88856997	         26.60126861	         23.11535930	          1.07090397	         -2.14156736	          1.07115708	          4.29007417	          0.20699855	         -2.34827638	         -2.39667487	          1.50481513	          0.08548947	          0.01000000	          0.01000001	          0.05501209	          0.03376196	          0.01297622	          0.08522010	          0.04439525	          0.23620531	          0.01000021	          0.01000003	          0.24491786	          0.25235765	          0.00999999	          0.06807443	          0.16098811	          0.01231719	          0.03589831	          0.08880704	          0.02957805	          0.05683326	          0.02355005	          0.03491761	          0.01000003	          0.02018237	          0.01231775	          0.01085820	          0.31494553	
          0.73683211	         -5.67649202	          4.36689502	        -11.49187426	          0.64998012	          0.87921688	          0.01707475	         -8.77813532	         -3.65984744	         12.69429860	        -13.49783329	         11.31713490	         28.32037805	         22.46733623	          1.37525394	         -0.97427608	          0.76590416	          3.77420124	          0.19033706	         -2.05875548	         -2.72760228	          1.73593249	          0.10694674	          0.01000000	          0.01000001	          0.04466325	          0.03524621	          0.01309768	          0.06918857	          0.03604365	          0.19982034	          0.01000036	          0.01000006	          0.20116776	          0.23108949	          0.01000000	          0.06779221	          0.13960777	          0.01000009	          0.05709843	          0.07210087	          0.03089418	          0.04614191	          0.03356805	          0.02834893	          0.01000007	          0.01655120	          0.01000059	          0.01000006	          0.33834088	
